<svg width="12" height="13" viewBox="0 0 12 13" fill="none" xmlns="http://www.w3.org/2000/svg">
<path d="M10.5 2.5H1.5C0.947715 2.5 0.5 2.94772 0.5 3.5V9.5C0.5 10.0523 0.947715 10.5 1.5 10.5H10.5C11.0523 10.5 11.5 10.0523 11.5 9.5V3.5C11.5 2.94772 11.0523 2.5 10.5 2.5Z" stroke="white" stroke-linecap="round" stroke-linejoin="round"/>
<path d="M0.5 5.5H11.5" stroke="white" stroke-linecap="round" stroke-linejoin="round"/>
<path d="M10.5 5H1.5C0.947715 5 0.5 4.55228 0.5 4C0.5 3.44772 0.947715 3 1.5 3H10.5C11.0523 3 11.5 3.44772 11.5 4C11.5 4.55228 11.0523 5 10.5 5Z" fill="white" stroke="white"/>
</svg>
