<svg width="50" height="50" viewBox="0 0 50 50" fill="none" xmlns="http://www.w3.org/2000/svg">
<path d="M21.4376 8.04167L3.79177 37.5C3.42795 38.13 3.23545 38.8444 3.23341 39.5719C3.23138 40.2995 3.41988 41.0149 3.78016 41.6469C4.14044 42.279 4.65995 42.8057 5.287 43.1747C5.91404 43.5437 6.62677 43.742 7.35427 43.75H42.6459C43.3734 43.742 44.0862 43.5437 44.7132 43.1747C45.3403 42.8057 45.8598 42.279 46.22 41.6469C46.5803 41.0149 46.7688 40.2995 46.7668 39.5719C46.7648 38.8444 46.5723 38.13 46.2084 37.5L28.5626 8.04167C28.1912 7.42939 27.6683 6.92317 27.0443 6.57184C26.4202 6.22052 25.7162 6.03595 25.0001 6.03595C24.284 6.03595 23.58 6.22052 22.9559 6.57184C22.3319 6.92317 21.809 7.42939 21.4376 8.04167V8.04167Z" stroke="#A53A3A" stroke-width="3" stroke-linecap="round" stroke-linejoin="round"/>
<path d="M25 18.75V27.0833" stroke="#A53A3A" stroke-width="3" stroke-linecap="round" stroke-linejoin="round"/>
<path d="M25 35.4167H25.0204" stroke="#A53A3A" stroke-width="3" stroke-linecap="round" stroke-linejoin="round"/>
</svg>
